<svg width="29" height="29" viewBox="0 0 29 29" fill="none" xmlns="http://www.w3.org/2000/svg">
<path d="M26.9286 16.5714H16.5714V26.9286C16.5714 27.4779 16.3532 28.0048 15.9647 28.3933C15.5763 28.7818 15.0494 29 14.5 29C13.9506 29 13.4237 28.7818 13.0353 28.3933C12.6468 28.0048 12.4286 27.4779 12.4286 26.9286V16.5714H2.07143C1.52205 16.5714 0.995176 16.3532 0.606708 15.9647C0.21824 15.5763 0 15.0494 0 14.5C0 13.9506 0.21824 13.4237 0.606708 13.0353C0.995176 12.6468 1.52205 12.4286 2.07143 12.4286H12.4286V2.07143C12.4286 1.52205 12.6468 0.995175 13.0353 0.606707C13.4237 0.218239 13.9506 0 14.5 0C15.0494 0 15.5763 0.218239 15.9647 0.606707C16.3532 0.995175 16.5714 1.52205 16.5714 2.07143V12.4286H26.9286C27.4779 12.4286 28.0048 12.6468 28.3933 13.0353C28.7818 13.4237 29 13.9506 29 14.5C29 15.0494 28.7818 15.5763 28.3933 15.9647C28.0048 16.3532 27.4779 16.5714 26.9286 16.5714Z" fill="white"/>
</svg>
