<svg width="23" height="17" viewBox="0 0 23 17" fill="none" xmlns="http://www.w3.org/2000/svg">
<path fill-rule="evenodd" clip-rule="evenodd" d="M0.716821 0.787198C0.808345 0.566453 0.963268 0.377802 1.162 0.245098C1.36073 0.112394 1.59435 0.0415964 1.83332 0.0416565H13.9167C15.0274 0.0416565 16.1273 0.260438 17.1535 0.685509C18.1797 1.11058 19.1122 1.73362 19.8976 2.51904C20.683 3.30447 21.3061 4.23691 21.7311 5.26312C22.1562 6.28934 22.375 7.38923 22.375 8.49999C22.375 9.61075 22.1562 10.7106 21.7311 11.7369C21.3061 12.7631 20.683 13.6955 19.8976 14.4809C19.1122 15.2664 18.1797 15.8894 17.1535 16.3145C16.1273 16.7395 15.0274 16.9583 13.9167 16.9583H3.04165C2.72118 16.9583 2.41384 16.831 2.18723 16.6044C1.96063 16.3778 1.83332 16.0705 1.83332 15.75C1.83332 15.4295 1.96063 15.1222 2.18723 14.8956C2.41384 14.669 2.72118 14.5417 3.04165 14.5417H13.9167C15.519 14.5417 17.0557 13.9051 18.1888 12.7721C19.3218 11.6391 19.9583 10.1023 19.9583 8.49999C19.9583 6.89764 19.3218 5.36092 18.1888 4.22789C17.0557 3.09485 15.519 2.45832 13.9167 2.45832H4.75024L6.91678 4.62486C7.13689 4.85276 7.25868 5.15799 7.25593 5.47481C7.25317 5.79163 7.12609 6.09469 6.90206 6.31873C6.67803 6.54276 6.37496 6.66984 6.05814 6.6726C5.74132 6.67535 5.43609 6.55356 5.2082 6.33345L0.979029 2.10428C0.809944 1.9353 0.694779 1.71997 0.648104 1.48552C0.60143 1.25107 0.625344 1.00805 0.716821 0.787198Z" fill="#F7941D" fill-opacity="0.8"/>
</svg>
