<svg width="28" height="29" viewBox="0 0 28 29" fill="none" xmlns="http://www.w3.org/2000/svg">
<path d="M15.9504 0.808257C15.331 0.286279 14.5471 0 13.7372 0C12.9272 0 12.1433 0.286279 11.524 0.808257L1.22108 9.50084C0.838669 9.82313 0.531261 10.2251 0.320347 10.6785C0.109433 11.132 0.000103378 11.6261 0 12.1262V26.3289C0 27.8033 1.19666 29 2.67112 29H7.25018C7.9586 29 8.63801 28.7186 9.13894 28.2176C9.63988 27.7167 9.9213 27.0373 9.9213 26.3289V20.2189C9.9213 19.181 10.7486 18.3384 11.7789 18.3109H15.6955C16.1927 18.3241 16.6652 18.5309 17.0122 18.8873C17.3591 19.2437 17.5532 19.7215 17.5531 20.2189V26.3289C17.5531 27.8033 18.7497 29 20.2242 29H24.8032C25.5117 29 26.1911 28.7186 26.692 28.2176C27.1929 27.7167 27.4744 27.0373 27.4744 26.3289V12.1246C27.4743 11.6245 27.3649 11.1305 27.154 10.677C26.9431 10.2235 26.6357 9.82161 26.2533 9.49931L15.9504 0.808257Z" fill="#F7941D" fill-opacity="0.6"/>
</svg>
