<svg width="27" height="29" viewBox="0 0 27 29" fill="none" xmlns="http://www.w3.org/2000/svg">
<path d="M13.05 15.95C16.5242 15.95 19.6838 16.9563 22.0081 18.3729C23.1681 19.0835 24.1599 19.9172 24.8762 20.8235C25.5809 21.7167 26.1 22.7839 26.1 23.925C26.1 25.1503 25.5041 26.116 24.6457 26.8047C23.8337 27.4572 22.7621 27.8893 21.6239 28.1909C19.3358 28.7955 16.2821 29 13.05 29C9.81795 29 6.76425 28.797 4.47615 28.1909C3.3379 27.8893 2.26635 27.4572 1.45435 26.8047C0.5945 26.1145 0 25.1503 0 23.925C0 22.7839 0.5191 21.7167 1.2238 20.8235C1.9401 19.9172 2.93045 19.0835 4.0919 18.3729C6.41625 16.9563 9.57725 15.95 13.05 15.95ZM13.05 0C14.9728 0 16.8169 0.763837 18.1765 2.12348C19.5362 3.48311 20.3 5.32718 20.3 7.25C20.3 9.17282 19.5362 11.0169 18.1765 12.3765C16.8169 13.7362 14.9728 14.5 13.05 14.5C11.1272 14.5 9.28312 13.7362 7.92348 12.3765C6.56384 11.0169 5.8 9.17282 5.8 7.25C5.8 5.32718 6.56384 3.48311 7.92348 2.12348C9.28312 0.763837 11.1272 0 13.05 0Z" fill="#F7941D" fill-opacity="0.6"/>
</svg>
